<svg width="132" height="38" viewBox="0 0 132 38" fill="none" xmlns="http://www.w3.org/2000/svg">
<g clip-path="url(#clip0_963_331)">
<path d="M15.6386 28.1963C14.1685 27.9885 12.9919 27.8406 12.9919 26.863C12.9919 26.1224 13.5802 25.4698 14.9035 25.4698C16.0207 25.4698 16.7266 25.9733 16.8152 26.7737H20.727C20.6384 24.1658 18.4332 22.0919 14.8453 22.0919C11.2574 22.0919 8.96364 24.1071 8.96364 27.1C8.96364 30.6551 12.2568 31.0999 14.3747 31.3969C15.8448 31.6047 17.0214 31.7232 17.0214 32.7595C17.0214 33.5001 16.404 34.1222 14.8453 34.1222C13.4043 34.1222 12.6984 33.5881 12.6692 32.729H8.69922C8.78777 35.4848 11.17 37.4988 14.8756 37.4988C18.5812 37.4988 21.0217 35.5141 21.0217 32.5212C21.0217 28.9662 17.64 28.492 15.6398 28.195L15.6386 28.1963Z" fill="white"/>
<path d="M36.4896 22.4781H31.4897L26.314 28.7596V16.078H22.344V37.1151H26.314V30.6551L31.6365 37.1151H36.7249L30.1373 29.6481L36.4896 22.4781Z" fill="white"/>
<path d="M43.4591 22.0919C38.8717 22.0919 35.6367 25.3512 35.6367 29.796C35.6367 34.2407 38.8717 37.5 43.4591 37.5C48.0465 37.5 51.2815 34.2407 51.2815 29.796C51.2815 25.3512 48.0465 22.0919 43.4591 22.0919ZM43.4591 33.7665C41.1945 33.7665 39.665 32.1363 39.665 29.796C39.665 27.4557 41.1945 25.8254 43.4591 25.8254C45.7237 25.8254 47.2533 27.4557 47.2533 29.796C47.2533 32.1363 45.7237 33.7665 43.4591 33.7665Z" fill="white"/>
<path d="M56.546 16.078H52.5759V37.1151H56.546V16.078Z" fill="white"/>
<path d="M65.7219 22.0919C61.1041 22.0919 57.8691 25.262 57.8691 29.9732C57.8691 35.0106 61.633 37.4988 64.9856 37.4988C67.1908 37.4988 68.9847 36.4613 69.8083 34.4766V37.1139H73.4545V29.9438C73.4545 25.1728 70.2777 22.0919 65.7194 22.0919H65.7219ZM65.6928 33.7665C63.4281 33.7665 61.8986 32.1363 61.8986 29.796C61.8986 27.4557 63.4281 25.8254 65.6928 25.8254C67.9574 25.8254 69.4869 27.4557 69.4869 29.796C69.4869 32.1363 67.9574 33.7665 65.6928 33.7665Z" fill="white"/>
<path d="M81.3376 22.0919C77.4852 22.0919 74.8677 24.2257 74.8677 28.6998V37.1151H78.8377V28.6998C78.8377 26.5367 79.8675 25.8254 81.3376 25.8254C82.8077 25.8254 83.8084 26.5367 83.8084 28.6998V28.8476H87.7785V28.7584C87.7493 24.1951 85.1609 22.0919 81.3376 22.0919Z" fill="white"/>
<path d="M92.5709 16.078H88.6008V37.1151H92.5709V16.078Z" fill="white"/>
<path d="M98.9232 22.478H94.9531V37.115H98.9232V22.478Z" fill="white"/>
<path d="M96.9532 15.6625C95.4528 15.6625 94.3647 16.7587 94.3647 18.2704C94.3647 19.7821 95.4528 20.8784 96.9532 20.8784C98.4536 20.8784 99.5417 19.7821 99.5417 18.2704C99.5417 16.7587 98.4536 15.6625 96.9532 15.6625Z" fill="white"/>
<path d="M108.011 22.0919C103.717 22.0919 100.835 24.6106 100.835 29.5296V37.1151H104.805V29.5296C104.805 26.9815 106.099 25.8254 108.011 25.8254C109.922 25.8254 111.216 26.9815 111.216 29.5296V37.1151H115.186V29.5296C115.186 24.5813 112.304 22.0919 108.011 22.0919Z" fill="white"/>
<path d="M124.862 29.6481L131.215 22.4781H126.215L121.039 28.7596V16.078H117.069V37.1151H121.039V30.6551L126.362 37.1151H131.45L124.862 29.6481Z" fill="white"/>
<path d="M15.481 15.9497L10.651 14.6457L4.57281 37.5H0.449951L6.80466 13.6069L1.97465 12.3029L7.16249 6.40147L12.3515 0.5L13.9163 8.22483L15.481 15.9497Z" fill="white"/>
</g>
<defs>
<clipPath id="clip0_963_331">
<rect width="131" height="37" fill="white" transform="translate(0.449951 0.5)"/>
</clipPath>
</defs>
</svg>
